<svg width="207" height="36" viewBox="0 0 207 36" fill="none" xmlns="http://www.w3.org/2000/svg">
<g clip-path="url(#clip0_1_95)">
<path d="M6.42072 16.8259H7.58321V10.4776H9.76644V9.41302H4.23688V10.4776H6.42072V16.8259Z" fill="white"/>
<path d="M28.626 16.9227C30.7454 16.9227 32.1658 15.6957 32.1658 13.0496H28.7763V14.0277H30.8531C30.7989 15.1361 29.8305 15.8466 28.626 15.8466C27.1521 15.8466 26.0115 14.6202 26.0115 13.125C26.0115 11.6304 27.1521 10.4028 28.626 10.4028C29.3031 10.4028 29.9169 10.6717 30.3688 11.1024L31.2083 10.3602C30.5623 9.71418 29.648 9.31696 28.626 9.31696C26.5164 9.31696 24.8709 11.0166 24.8709 13.1256C24.8709 15.2352 26.517 16.9233 28.626 16.9233V16.9227Z" fill="white"/>
<path d="M14.9949 29.6523H17.1787V36H18.3412V29.6523H20.5251V28.5877H14.9949V29.6523Z" fill="white"/>
<path d="M18.3212 19.8602V0H17.1994V19.859L0 29.7891V31.0867L17.7597 20.8311L35.5194 31.0867V29.7891L18.3212 19.8602Z" fill="white"/>
<path d="M63.5194 12.0153H68.3903V25.7897H69.2976V12.0153H74.1895V11.1074H63.5194V12.0153Z" fill="white"/>
<path d="M82.9256 21.4649C82.8248 24.7365 80.46 25.0906 79.4488 25.0906C77.5195 25.0906 76.2237 23.7028 76.2237 21.6373V15.7491H75.3159V21.6373C75.3159 24.2058 77.0154 26 79.4488 26C81.0373 26 82.2911 25.3317 82.9256 24.1818V25.7897H83.8335V15.7491H82.9256V21.4649Z" fill="white"/>
<path d="M94.7171 20.2351H98.7512C98.6463 22.3875 96.7661 23.7687 94.4238 23.7687C91.5606 23.7687 89.3431 21.3865 89.3431 18.4818C89.3431 15.5766 91.559 13.1918 94.4238 13.1918C95.7411 13.1918 96.933 13.7143 97.8111 14.5515L99.4421 13.1089C98.1867 11.8541 96.4104 11.0823 94.4238 11.0823C90.3267 11.0823 87.1267 14.3837 87.1267 18.4818C87.1267 22.5794 90.3267 25.8598 94.4238 25.8598C98.5214 25.8598 101.302 23.4775 101.302 18.3359H94.7171V20.2366V20.2351Z" fill="white"/>
<path d="M110.448 21.1343C110.448 23.0784 109.194 23.7688 107.94 23.7688C106.77 23.7688 105.913 22.931 105.913 21.3236V15.8893H103.759V21.5738C103.738 24.3332 105.159 25.8598 107.543 25.8598C108.567 25.8598 109.884 25.3373 110.448 24.2293V25.651H112.602V15.8893H110.448V21.1343Z" fill="white"/>
<path d="M115.89 14.3627H117.771L120.406 11.0598H117.98L115.89 14.3627Z" fill="white"/>
<path d="M115.826 15.8893H117.959V25.6495H115.826V15.8893Z" fill="white"/>
<path d="M128.896 17.2674C128.226 16.1595 126.784 15.679 125.613 15.679C122.979 15.679 120.658 17.6426 120.658 20.7576C120.658 23.8721 122.978 25.8583 125.613 25.8583C126.826 25.8583 128.247 25.3148 128.896 24.2478V25.6484H131.029V15.8893H128.896V17.2674ZM125.864 23.7688C124.233 23.7688 122.874 22.5349 122.874 20.7382C122.874 18.9409 124.233 17.77 125.864 17.77C127.326 17.77 128.874 18.815 128.874 20.7382C128.874 22.6608 127.452 23.7688 125.864 23.7688Z" fill="white"/>
<path d="M131.814 12.0153H136.684V25.7897H137.592V12.0153H142.485V11.1074H131.814V12.0153Z" fill="white"/>
<path d="M145.046 11.546C144.605 11.546 144.259 11.8735 144.259 12.2927C144.259 12.7113 144.605 13.0178 145.046 13.0178C145.487 13.0178 145.856 12.6985 145.856 12.2927C145.856 11.8863 145.508 11.546 145.046 11.546Z" fill="white"/>
<path d="M144.594 15.7491H145.501V25.7897H144.594V15.7491Z" fill="white"/>
<path d="M153.433 15.5392C151.718 15.5392 150.63 16.6201 150.082 17.8345V15.7491H149.176V25.7897H150.082V21.8067C150.114 20.1947 150.505 16.4466 153.433 16.4466C153.722 16.4466 154.111 16.465 154.562 16.6093L154.697 16.6523L154.967 15.7772L154.835 15.7352C154.3 15.5643 153.827 15.5418 153.434 15.5418L153.433 15.5392Z" fill="white"/>
<path d="M161.634 15.5392C158.597 15.5392 156.392 17.7255 156.392 20.7366C156.392 23.7478 158.597 25.9969 161.634 25.9969C164.671 25.9969 166.874 23.7841 166.874 20.7366C166.874 17.6891 164.671 15.5392 161.634 15.5392ZM165.967 20.7366C165.967 23.2591 164.144 25.0896 161.634 25.0896C159.123 25.0896 157.301 23.2591 157.301 20.7366C157.301 18.2142 159.123 16.4451 161.634 16.4451C164.144 16.4451 165.967 18.2505 165.967 20.7366Z" fill="white"/>
<path d="M169.841 15.7491H170.748V25.7897H169.841V15.7491Z" fill="white"/>
<path d="M170.294 11.546C169.851 11.546 169.505 11.8735 169.505 12.2927C169.505 12.7113 169.851 13.0178 170.294 13.0178C170.737 13.0178 171.104 12.6985 171.104 12.2927C171.104 11.8863 170.756 11.546 170.294 11.546Z" fill="white"/>
<path d="M183.265 17.815C182.3 16.399 180.682 15.5392 178.929 15.5392C176.052 15.5392 173.71 17.8795 173.71 20.7576C173.71 23.6357 176.05 25.9985 178.929 25.9985C180.68 25.9985 182.3 25.1372 183.265 23.7212V25.7897H184.171V10H183.265V17.815ZM183.265 20.7576V20.9408C183.184 23.2672 181.28 25.0896 178.929 25.0896C176.578 25.0896 174.617 23.1454 174.617 20.7576C174.617 18.3697 176.552 16.445 178.929 16.445C181.307 16.445 183.265 18.3795 183.265 20.7576Z" fill="white"/>
<path d="M192.215 15.5392C189.286 15.5392 187.16 17.7255 187.16 20.7366C187.16 23.7478 189.286 25.9969 192.215 25.9969C194.012 25.9969 195.627 25.1203 196.535 23.6511L196.609 23.5318L195.828 23.0528L195.753 23.1705C194.987 24.3906 193.697 25.0896 192.213 25.0896C189.937 25.0896 188.254 23.4776 188.077 21.1481H197.121V20.7366C197.121 17.6763 195.103 15.5392 192.215 15.5392ZM196.205 20.3037H188.079C188.277 18.0238 189.96 16.4451 192.215 16.4451C194.47 16.4451 196.029 17.99 196.205 20.3037Z" fill="white"/>
<path d="M203.604 20.3707L202.162 20.036C200.864 19.7295 200.274 19.0151 200.409 17.9128C200.518 17.0627 201.462 16.4451 202.653 16.4451C203.844 16.4451 204.698 17.0868 204.834 18.0811L204.851 18.2014H205.777L205.761 18.0474C205.612 16.5474 204.362 15.5392 202.653 15.5392C200.944 15.5392 199.672 16.4747 199.502 17.8166C199.231 20.2633 201.279 20.7535 201.952 20.9142L203.411 21.2489C204.59 21.5529 205.188 22.1818 205.188 23.1204C205.188 24.3179 204.184 25.0906 202.63 25.0906C201.276 25.0906 200.371 24.4955 199.939 23.322L199.906 23.2294H199.011L199.044 23.3977C199.36 24.9775 200.767 25.9985 202.63 25.9985C204.702 25.9985 206.095 24.8414 206.095 23.1204C206.095 22.1496 205.663 20.8866 203.603 20.3712L203.604 20.3707Z" fill="white"/>
</g>
<defs>
<clipPath id="clip0_1_95">
<rect width="206.095" height="36" fill="white"/>
</clipPath>
</defs>
</svg>
